# Blender v2.82 (sub 7) OBJ File: 'Room3.blend'
# www.blender.org
mtllib Bookshelf.mtl
o Cube.003_Cube
v 7.860430 7.516902 -5.476803
v 8.124009 7.516902 -5.476803
v 8.124009 7.516902 -5.665163
v 7.860430 7.516902 -5.665163
v 7.860430 7.327710 -5.665163
v 8.124009 7.327710 -5.665163
v 8.124010 7.327710 -0.536359
v 8.124010 7.516902 -0.536359
v 8.124010 7.516902 -0.346770
v 8.124010 7.327710 -0.346770
v 8.124009 0.494318 -5.476803
v 7.860430 0.494318 -5.476803
v 7.860430 0.494318 -5.665163
v 8.124009 0.494318 -5.665163
v 7.860430 0.661522 -5.665163
v 6.245668 0.661522 -5.665163
v 6.245668 7.327710 -5.665163
v 7.860431 7.516902 -0.346770
v 7.860431 7.327710 -0.346770
v 8.124010 0.494318 -0.346770
v 8.124010 0.661523 -0.346770
v 7.860431 0.661523 -0.346770
v 7.860431 0.494318 -0.346770
v 6.245668 7.516902 -5.665163
v 6.245668 7.516902 -5.476803
v 8.124010 0.494318 -0.536359
v 8.124010 0.661523 -0.536359
v 8.124009 0.661522 -5.665163
v 7.860430 7.327710 -5.476803
v 6.245668 7.327710 -5.476803
v 8.124009 7.327710 -5.476803
v 8.124009 0.661522 -5.476803
v 7.860431 0.661523 -0.536359
v 7.860431 7.327710 -0.536359
v 7.860430 0.661522 -5.476803
v 7.860431 0.494318 -0.536359
v 6.247891 0.494318 -0.536359
v 6.247890 0.494318 -5.476803
v 7.860431 7.516902 -0.536359
v 6.249000 7.516902 -5.476803
v 6.249001 7.516902 -0.536359
v 6.252115 7.327710 -0.346770
v 6.252115 0.661523 -0.346770
v 6.252115 0.661523 -0.536359
v 6.252115 7.327710 -0.536359
v 6.252115 7.516902 -0.536359
v 6.252115 7.516902 -0.346770
v 6.249001 7.327710 -0.536359
v 6.249000 7.327710 -5.476803
v 6.247891 0.661523 -0.536359
v 6.247890 0.661522 -5.476803
v 6.245668 0.494318 -5.476803
v 6.245668 0.661522 -5.476803
v 6.245668 0.494318 -5.665163
v 6.252115 0.494318 -0.346770
v 6.252115 0.494318 -0.536359
vt 0.625000 0.741146
vt 0.875000 0.741146
vt 0.875000 0.750000
vt 0.625000 0.750000
vt 0.618265 0.750000
vt 0.625000 1.000000
vt 0.618265 1.000000
vt 0.618265 0.241088
vt 0.625000 0.241088
vt 0.625000 0.250000
vt 0.618265 0.250000
vt 0.125000 0.741146
vt 0.375000 0.741146
vt 0.375000 0.750000
vt 0.125000 0.750000
vt 0.380952 0.750000
vt 0.380952 0.750000
vt 0.618265 0.750000
vt 0.625000 0.500000
vt 0.618265 0.500000
vt 0.375000 0.250000
vt 0.380952 0.250000
vt 0.380952 0.500000
vt 0.375000 0.500000
vt 0.625000 0.750000
vt 0.625000 0.741146
vt 0.375000 0.241088
vt 0.380952 0.241088
vt 0.380952 1.000000
vt 0.375000 1.000000
vt 0.618265 0.741146
vt 0.618265 0.741146
vt 0.380952 0.000000
vt 0.618265 0.000000
vt 0.618265 0.008854
vt 0.380952 0.008854
vt 0.380952 0.508912
vt 0.618265 0.508912
vt 0.380952 0.741146
vt 0.375000 0.000000
vt 0.375000 0.008854
vt 0.375000 0.508912
vt 0.375000 0.508912
vt 0.375000 0.741146
vt 0.625000 0.508912
vt 0.625000 0.741146
vt 0.625000 0.508912
vt 0.125000 0.508912
vt 0.625000 0.000000
vt 0.625000 0.008854
vt 0.875000 0.508912
vt 0.875000 0.500000
vt 0.125000 0.500000
vt 0.618265 0.500000
vt 0.380952 0.500000
vt 0.380952 0.508912
vt 0.618265 0.508912
vt 0.625000 0.508912
vt 0.625000 0.500000
vt 0.618265 0.508912
vt 0.618265 0.741146
vt 0.380952 0.508912
vt 0.380952 0.741146
vt 0.375000 0.741146
vt 0.380952 0.741146
vt 0.375000 0.750000
vt 0.375000 0.500000
vt 0.375000 0.508912
vn 0.0000 1.0000 0.0000
vn 0.0000 -0.0000 -1.0000
vn 1.0000 0.0000 -0.0000
vn 0.0000 -1.0000 0.0000
vn 0.0000 0.0000 1.0000
vn -1.0000 -0.0000 0.0000
g Cube.003_Cube_Material.014
usemtl Material.014
s 1
f 1/1/1 2/2/1 3/3/1 4/4/1
f 5/5/2 4/4/2 3/6/2 6/7/2
f 7/8/3 8/9/3 9/10/3 10/11/3
f 11/12/4 12/13/4 13/14/4 14/15/4
f 5/5/2 15/16/2 16/17/2 17/18/2
f 10/11/5 9/10/5 18/19/5 19/20/5
f 20/21/5 21/22/5 22/23/5 23/24/5
f 1/1/1 4/4/1 24/25/1 25/26/1
f 26/27/3 27/28/3 21/22/3 20/21/3
f 13/14/2 15/16/2 28/29/2 14/30/2
f 21/22/5 10/11/5 19/20/5 22/23/5
f 29/31/5 1/1/5 25/26/5 30/32/5
f 27/28/3 7/8/3 10/11/3 21/22/3
f 15/16/2 5/5/2 6/7/2 28/29/2
f 28/33/3 6/34/3 31/35/3 32/36/3
f 33/37/6 34/38/6 29/31/6 35/39/6
f 14/40/3 28/33/3 32/36/3 11/41/3
f 12/13/4 36/42/4 37/43/4 38/44/4
f 39/45/1 1/1/1 40/46/1 41/47/1
f 26/48/4 36/42/4 12/13/4 11/12/4
f 6/34/3 3/49/3 2/50/3 31/35/3
f 39/45/1 8/51/1 2/2/1 1/1/1
f 18/19/1 9/52/1 8/51/1 39/45/1
f 20/53/4 23/24/4 36/42/4 26/48/4
f 22/23/5 19/20/5 42/54/5 43/55/5
f 34/38/2 33/37/2 44/56/2 45/57/2
f 18/19/1 39/45/1 46/58/1 47/59/1
f 32/36/3 31/35/3 7/8/3 27/28/3
f 11/41/3 32/36/3 27/28/3 26/27/3
f 31/35/3 2/50/3 8/9/3 7/8/3
f 48/60/6 41/47/6 40/46/6 49/61/6
f 1/1/2 29/31/2 49/61/2 40/46/2
f 29/31/4 34/38/4 48/60/4 49/61/4
f 34/38/5 39/45/5 41/47/5 48/60/5
f 37/43/6 50/62/6 51/63/6 38/44/6
f 33/37/1 35/39/1 51/63/1 50/62/1
f 35/39/2 12/13/2 38/44/2 51/63/2
f 36/42/5 33/37/5 50/62/5 37/43/5
f 30/32/6 25/26/6 24/25/6 17/18/6
f 52/64/6 53/65/6 16/17/6 54/66/6
f 53/65/6 30/32/6 17/18/6 16/17/6
f 12/13/5 35/39/5 53/65/5 52/64/5
f 35/39/5 29/31/5 30/32/5 53/65/5
f 15/16/2 13/14/2 54/66/2 16/17/2
f 4/4/2 5/5/2 17/18/2 24/25/2
f 13/14/4 12/13/4 52/64/4 54/66/4
f 42/54/6 47/59/6 46/58/6 45/57/6
f 55/67/6 43/55/6 44/56/6 56/68/6
f 43/55/6 42/54/6 45/57/6 44/56/6
f 39/45/2 34/38/2 45/57/2 46/58/2
f 19/20/5 18/19/5 47/59/5 42/54/5
f 23/24/5 22/23/5 43/55/5 55/67/5
f 33/37/2 36/42/2 56/68/2 44/56/2
f 36/42/4 23/24/4 55/67/4 56/68/4
o Plane
v 7.930080 2.139608 -5.554188
v 7.930081 2.139608 -0.457745
v 6.304841 2.139608 -0.457744
v 6.304840 2.139608 -5.554188
v 7.930080 2.339334 -5.554188
v 6.304840 2.339334 -5.554188
v 6.304841 2.339334 -0.457744
v 7.930081 2.339334 -0.457745
vt 0.000000 0.000000
vt 0.000000 1.000000
vt 1.000000 1.000000
vt 1.000000 0.000000
vt 0.000000 0.000000
vt 1.000000 0.000000
vt 1.000000 1.000000
vt 0.000000 1.000000
vn 0.0000 -1.0000 0.0000
vn -0.0000 1.0000 0.0000
vn -1.0000 0.0000 0.0000
vn 1.0000 0.0000 -0.0000
vn 0.0000 0.0000 1.0000
vn -0.0000 0.0000 -1.0000
g Plane_Plane_None.003
usemtl None.003
s 1
f 57/69/7 58/70/7 59/71/7 60/72/7
f 61/73/8 62/74/8 63/75/8 64/76/8
f 60/72/9 59/71/9 63/75/9 62/74/9
f 58/70/10 57/69/10 61/73/10 64/76/10
f 59/71/11 58/70/11 64/76/11 63/75/11
f 57/69/12 60/72/12 62/74/12 61/73/12
o Plane.001
v 7.930080 3.900127 -5.554189
v 7.930081 3.900127 -0.457745
v 6.304841 3.900127 -0.457745
v 6.304840 3.900127 -5.554188
v 7.930080 4.099853 -5.554189
v 6.304840 4.099853 -5.554188
v 6.304841 4.099853 -0.457745
v 7.930081 4.099853 -0.457745
vt 0.000000 0.000000
vt 0.000000 1.000000
vt 1.000000 1.000000
vt 1.000000 0.000000
vt 0.000000 0.000000
vt 1.000000 0.000000
vt 1.000000 1.000000
vt 0.000000 1.000000
vn 0.0000 -1.0000 -0.0000
vn 0.0000 1.0000 0.0000
vn -1.0000 0.0000 0.0000
vn 1.0000 0.0000 -0.0000
vn 0.0000 0.0000 1.0000
vn -0.0000 0.0000 -1.0000
g Plane.001_Plane.001_None.003
usemtl None.003
s 1
f 65/77/13 66/78/13 67/79/13 68/80/13
f 69/81/14 70/82/14 71/83/14 72/84/14
f 68/80/15 67/79/15 71/83/15 70/82/15
f 66/78/16 65/77/16 69/81/16 72/84/16
f 67/79/17 66/78/17 72/84/17 71/83/17
f 65/77/18 68/80/18 70/82/18 69/81/18
o Plane.002
v 7.930080 5.533580 -5.554189
v 7.930081 5.533580 -0.457745
v 6.304841 5.533580 -0.457745
v 6.304840 5.533580 -5.554188
v 7.930080 5.733306 -5.554189
v 6.304840 5.733306 -5.554188
v 6.304841 5.733306 -0.457745
v 7.930081 5.733306 -0.457745
vt 0.000000 0.000000
vt 0.000000 1.000000
vt 1.000000 1.000000
vt 1.000000 0.000000
vt 0.000000 0.000000
vt 1.000000 0.000000
vt 1.000000 1.000000
vt 0.000000 1.000000
vn 0.0000 -1.0000 -0.0000
vn 0.0000 1.0000 0.0000
vn -1.0000 0.0000 0.0000
vn 1.0000 0.0000 -0.0000
vn 0.0000 0.0000 1.0000
vn -0.0000 0.0000 -1.0000
g Plane.002_Plane.002_None.003
usemtl None.003
s 1
f 73/85/19 74/86/19 75/87/19 76/88/19
f 77/89/20 78/90/20 79/91/20 80/92/20
f 76/88/21 75/87/21 79/91/21 78/90/21
f 74/86/22 73/85/22 77/89/22 80/92/22
f 75/87/23 74/86/23 80/92/23 79/91/23
f 73/85/24 76/88/24 78/90/24 77/89/24
