# Blender v2.82 (sub 7) OBJ File: ''
# www.blender.org
mtllib Book3.mtl
o Cube
v -0.551935 0.693316 -0.196746
v -0.551935 -0.693316 -0.196746
v -0.551935 0.693316 0.196746
v -0.551935 -0.693316 0.196746
v 0.525121 -0.693316 -0.196746
v 0.525121 0.693316 0.196746
v 0.525121 -0.693316 0.196746
v 0.525121 0.693316 -0.196746
v -0.551935 -0.693316 -0.169917
v 0.551935 0.693316 -0.169917
v -0.551935 0.693316 -0.169917
v 0.551935 -0.693316 -0.169917
v 0.525121 -0.693316 -0.169917
v 0.525121 0.693316 -0.169917
v -0.551935 -0.693316 0.170241
v 0.551935 0.693316 0.170241
v 0.525121 -0.693316 0.170241
v 0.525121 0.693316 0.170241
v -0.551935 0.693316 0.170241
v 0.551935 -0.693316 0.170241
v 0.551935 0.693316 -0.169917
v 0.545752 0.693316 -0.183583
v 0.539557 0.693316 -0.188852
v 0.525121 0.693316 -0.196746
v 0.525121 -0.693316 -0.196746
v 0.539557 -0.693316 -0.188852
v 0.545752 -0.693316 -0.183583
v 0.551935 -0.693316 -0.169917
v 0.525121 0.693316 0.196746
v 0.539437 0.693316 0.188989
v 0.548044 0.693316 0.179239
v 0.551935 0.693316 0.170241
v 0.551935 -0.693316 0.170241
v 0.548044 -0.693316 0.179239
v 0.539437 -0.693316 0.188989
v 0.525121 -0.693316 0.196746
vt 0.022637 0.341431
vt 0.022637 0.666667
vt 0.000000 0.666667
vt 0.000000 0.341431
vt 0.672109 0.333333
vt 0.672109 0.000000
vt 1.000000 0.000000
vt 1.000000 0.333333
vt 0.649418 0.666667
vt 0.649418 1.000000
vt 0.626506 1.000000
vt 0.626506 0.666667
vt 0.000000 0.000000
vt 0.000000 0.000000
vt 0.000000 0.000000
vt 0.000000 0.000000
vt 0.000000 0.000000
vt 0.000000 0.000000
vt 0.000000 0.000000
vt 0.000000 0.000000
vt 0.663946 0.666667
vt 0.663946 0.333333
vt 0.991837 0.333333
vt 0.991837 0.666667
vt 0.672109 0.022453
vt 0.344218 0.022453
vt 0.344218 0.000000
vt 0.672109 0.000000
vt 0.336054 0.022453
vt 0.336054 0.022453
vt 0.337239 0.014830
vt 0.339859 0.006572
vt 0.344218 0.000000
vt 0.678595 1.000000
vt 0.678595 0.666667
vt 0.686870 0.666667
vt 0.686870 1.000000
vt 0.672109 0.333333
vt 0.344218 0.333333
vt 0.344218 0.310606
vt 0.672109 0.310606
vt 0.344218 0.333333
vt 0.339823 0.326646
vt 0.337937 0.322182
vt 0.336054 0.310606
vt 0.336054 0.310606
vt 0.336054 0.333333
vt 0.663946 0.333333
vt 0.663946 0.666667
vt 0.336055 0.666667
vt 0.336054 0.341430
vt 0.336054 0.666667
vt 0.313142 0.666667
vt 0.313142 0.341430
vt 0.649418 1.000000
vt 0.649418 0.666667
vt 0.672055 0.666667
vt 0.672055 1.000000
vt 0.313142 0.333333
vt 0.022637 0.333333
vt 0.290540 0.666667
vt 0.290502 1.000000
vt 0.000000 1.000000
vt 0.000000 0.666667
vt 0.290502 0.666667
vt 0.626506 0.666667
vt 0.626506 1.000000
vt 0.336055 1.000000
vt 0.336054 0.666667
vt 0.000000 0.000000
vt 0.008163 0.000000
vt 0.336054 0.000000
vt 0.336054 0.333333
vt 0.008163 0.333333
vt 0.000000 0.333333
vt 0.000000 0.000000
vt 0.000000 0.000000
vt 0.000000 0.000000
vt 0.313142 0.333333
vt 0.324812 0.335200
vt 0.329312 0.337071
vt 0.336054 0.341430
vt 0.000000 0.000000
vt 0.000000 0.000000
vt 0.000000 0.000000
vt 0.000000 0.000000
vt 0.000000 0.341431
vt 0.006625 0.337108
vt 0.014952 0.334508
vt 0.022637 0.333333
vt 0.313605 0.666667
vt 0.313605 1.000000
vt 0.301901 1.000000
vt 0.301901 0.666667
vt 0.290540 1.000000
vt 0.290540 0.666667
vt 0.297365 0.666667
vt 0.297365 1.000000
vt 0.672055 1.000000
vt 0.672055 0.666667
vt 0.694531 0.666667
vt 0.694531 1.000000
vn 0.0000 1.0000 0.0000
vn 0.0000 0.0000 1.0000
vn -1.0000 0.0000 0.0000
vn 0.0000 0.0000 -1.0000
vn 0.0000 -1.0000 0.0000
vn 0.7496 0.0000 0.6618
vn -0.9992 0.0000 0.0394
vn 1.0000 0.0000 0.0000
vn 0.9111 0.0000 -0.4122
vn 0.4798 0.0000 -0.8774
vn 0.4764 0.0000 0.8792
vn 0.9179 0.0000 0.3969
vn 0.6479 0.0000 -0.7617
g Cube_Cube_Material
usemtl Material
s off
f 18/1/1 19/2/1 3/3/1 6/4/1
f 7/5/2 6/6/2 3/7/2 4/8/2
f 9/9/3 11/10/3 1/11/3 2/12/3
f 20/13/2 16/14/2 32/15/2 33/16/2
f 5/17/2 8/18/2 24/19/2 25/20/2
f 2/21/4 1/22/4 8/23/4 5/24/4
f 15/25/5 17/26/5 7/27/5 4/28/5
f 17/26/5 20/29/5 33/30/5 34/31/5 35/32/5 36/33/5 7/27/5
f 30/34/6 35/35/6 34/36/6 31/37/6
f 2/38/5 5/39/5 13/40/5 9/41/5
f 5/39/5 25/42/5 26/43/5 27/44/5 28/45/5 12/46/5 13/40/5
f 19/47/4 18/48/4 17/49/4 15/50/4
f 8/51/1 1/52/1 11/53/1 14/54/1
f 4/55/3 3/56/3 19/57/3 15/58/3
f 10/59/1 14/54/1 18/1/1 16/60/1
f 20/61/7 18/62/7 14/63/7 13/64/7 17/65/7
f 12/66/8 10/67/8 16/68/8 20/69/8
f 13/40/5 12/46/5 20/29/5 17/26/5
f 10/70/2 14/71/2 11/72/2 9/73/2 13/74/2 12/75/2
f 28/76/2 21/77/2 10/70/2 12/78/2
f 21/79/1 22/80/1 23/81/1 24/82/1 8/51/1 14/54/1 10/59/1
f 36/83/2 29/84/2 6/85/2 7/86/2
f 16/60/1 18/1/1 6/4/1 29/87/1 30/88/1 31/89/1 32/90/1
f 21/91/9 28/92/9 27/93/9 22/94/9
f 25/95/10 24/96/10 23/97/10 26/98/10
f 29/99/11 36/100/11 35/35/11 30/34/11
f 33/101/12 32/102/12 31/37/12 34/36/12
f 22/94/13 27/93/13 26/98/13 23/97/13
o Cube.001
v -0.524414 -0.679719 0.168247
v -0.524414 0.679719 0.168247
v -0.524414 -0.679719 -0.168247
v -0.524414 0.679719 -0.168247
v 0.524414 -0.679719 0.168247
v 0.524414 0.679719 0.168247
v 0.524414 -0.679719 -0.168247
v 0.524414 0.679719 -0.168247
vt 0.375000 0.000000
vt 0.625000 0.000000
vt 0.625000 0.250000
vt 0.375000 0.250000
vt 0.625000 0.500000
vt 0.375000 0.500000
vt 0.625000 0.750000
vt 0.375000 0.750000
vt 0.625000 1.000000
vt 0.375000 1.000000
vt 0.125000 0.500000
vt 0.125000 0.750000
vt 0.875000 0.500000
vt 0.875000 0.750000
vn -1.0000 0.0000 0.0000
vn 0.0000 0.0000 -1.0000
vn 1.0000 0.0000 0.0000
vn 0.0000 0.0000 1.0000
vn 0.0000 -1.0000 0.0000
vn 0.0000 1.0000 0.0000
g Cube.001_Cube.001_None
usemtl None
s off
f 37/103/14 38/104/14 40/105/14 39/106/14
f 39/106/15 40/105/15 44/107/15 43/108/15
f 43/108/16 44/107/16 42/109/16 41/110/16
f 41/110/17 42/109/17 38/111/17 37/112/17
f 39/113/18 43/108/18 41/110/18 37/114/18
f 44/107/19 40/115/19 38/116/19 42/109/19
