# Blender v2.82 (sub 7) OBJ File: 'Room3.blend'
# www.blender.org
mtllib Floor.mtl
o Floor_Cube.002
v 8.104434 0.005417 15.888932
v 8.104435 0.505500 15.888932
v -8.450058 0.505500 15.888932
v -8.450058 0.005417 15.888932
v -8.450058 0.505505 -15.255558
v -8.450058 0.005423 -15.255558
v 8.104434 0.005423 -15.255558
v 8.104434 0.505505 -15.255558
vt 1.000000 0.999967
vt 0.991278 1.000000
vt 0.991278 0.500033
vt 1.000000 0.500000
vt 0.973834 0.000000
vt 0.982556 0.000000
vt 0.982556 0.909044
vt 0.973834 0.909045
vt 0.486917 0.000000
vt 0.486917 0.909045
vt 0.991278 0.000000
vt 1.000000 0.000033
vt 1.000000 0.500000
vt 0.991278 0.499967
vt 0.000000 0.909045
vt 0.000000 0.000000
vt 0.486917 0.000000
vt 0.486917 0.909045
vt 0.982556 0.000000
vt 0.991278 0.000000
vt 0.991278 0.909045
vt 0.982556 0.909045
vn 0.5773 -0.5774 0.5774
vn 0.5774 0.5773 0.5774
vn -0.5774 0.5774 0.5774
vn -0.5774 -0.5774 0.5774
vn -0.5774 0.5774 -0.5774
vn -0.5774 -0.5774 -0.5774
vn 0.5773 -0.5774 -0.5773
vn 0.5774 0.5773 -0.5774
g Floor_Cube.002_Floor_Cube.002_Material.017
usemtl Material.017
s 1
f 1/1/1 2/2/2 3/3/3 4/4/4
f 4/5/4 3/6/3 5/7/5 6/8/6
f 1/9/1 4/5/4 6/8/6 7/10/7
f 6/11/6 5/12/5 8/13/8 7/14/7
f 5/15/5 3/16/3 2/17/2 8/18/8
f 7/19/7 8/20/8 2/21/2 1/22/1
