# Blender v2.82 (sub 7) OBJ File: 'Room3.blend'
# www.blender.org
mtllib Windowsills.mtl
o Cube.001_Cube.007
v 7.792675 3.740749 13.228107
v 7.792675 5.294215 13.228107
v 7.792675 3.740749 0.767196
v 7.792675 5.294215 0.767196
v 9.489094 5.294215 13.228107
v 9.489094 5.294215 0.767196
v 7.792675 5.029965 13.228107
v 7.792675 5.029965 0.767196
v 9.489094 5.029965 0.767196
v 9.489094 5.029965 13.228107
v 8.166101 3.740749 0.767196
v 8.166101 5.294215 0.767196
v 8.166101 3.740749 13.228107
v 8.166101 5.294215 13.228107
v 8.166101 5.029965 13.228107
v 8.166101 5.029965 0.767196
vt 0.554961 0.196071
vt 0.554961 0.141246
vt 0.877260 0.141246
vt 0.877260 0.196070
vt 0.500137 0.786118
vt 0.445313 0.786118
vt 0.445313 0.534766
vt 0.500137 0.534766
vt 0.554687 0.157369
vt 0.554687 0.212193
vt 0.232388 0.212193
vt 0.232388 0.157369
vt 0.822436 0.786118
vt 0.877260 0.786118
vt 0.877260 0.857064
vt 0.822436 0.857064
vt 0.554687 0.463545
vt 0.554687 0.534491
vt 0.232388 0.534491
vt 0.232388 0.463545
vt 0.554960 0.786118
vt 0.554960 0.857065
vt 0.554961 0.463545
vt 0.877260 0.463545
vt 0.767612 0.857064
vt 0.500137 0.857064
vt 0.767612 0.786118
vt 0.122740 0.857065
vt 0.122740 0.589590
vt 0.445039 0.589590
vt 0.445039 0.857065
vt 0.877260 0.534491
vt 0.554961 0.534491
vt 0.822436 0.534766
vt 0.877260 0.534766
vt 0.445313 0.857064
vn -1.0000 0.0000 0.0000
vn 0.0000 0.0000 -1.0000
vn 1.0000 0.0000 0.0000
vn 0.0000 0.0000 1.0000
vn 0.0000 1.0000 0.0000
vn 0.0000 -1.0000 0.0000
g Cube.001_Cube.007_Material.007
usemtl Material.007
s off
f 7/1/1 2/2/1 4/3/1 8/4/1
f 16/5/2 12/6/2 6/7/2 9/8/2
f 9/9/3 6/10/3 5/11/3 10/12/3
f 15/13/4 14/14/4 2/15/4 7/16/4
f 12/17/5 4/18/5 2/19/5 14/20/5
f 13/21/4 15/13/4 7/16/4 1/22/4
f 1/23/1 7/1/1 8/4/1 3/24/1
f 3/25/2 8/26/2 16/5/2 11/27/2
f 15/28/3 13/29/3 11/30/3 16/31/3
f 6/10/5 12/17/5 14/20/5 5/11/5
f 3/24/6 11/32/6 13/33/6 1/23/6
f 10/34/4 5/35/4 14/14/4 15/13/4
f 8/26/2 4/36/2 12/6/2 16/5/2
f 10/34/6 15/13/6 16/5/6 9/8/6
o Cube.002_Cube.008
v 7.790632 3.740749 -6.696114
v 7.790632 5.294215 -6.696114
v 7.790632 3.740749 -14.454412
v 7.790632 5.294215 -14.454412
v 9.487051 5.294215 -6.696114
v 9.487051 5.294215 -14.454412
v 7.790632 5.029965 -6.696114
v 7.790632 5.029965 -14.454412
v 9.487051 5.029965 -14.454412
v 9.487051 5.029965 -6.696114
v 8.164058 3.740749 -14.454412
v 8.164058 5.294215 -14.454412
v 8.164058 3.740749 -6.696114
v 8.164058 5.294215 -6.696114
v 8.164058 5.029965 -6.696114
v 8.164058 5.029965 -14.454412
vt 0.582474 0.000000
vt 0.625000 0.000000
vt 0.625000 0.250000
vt 0.582474 0.250000
vt 0.582474 0.305031
vt 0.625000 0.305031
vt 0.625000 0.500000
vt 0.582474 0.500000
vt 0.625000 0.750000
vt 0.582474 0.750000
vt 0.582474 0.944969
vt 0.625000 0.944969
vt 0.625000 1.000000
vt 0.582474 1.000000
vt 0.819969 0.500000
vt 0.875000 0.500000
vt 0.875000 0.750000
vt 0.819969 0.750000
vt 0.375000 0.944969
vt 0.375000 1.000000
vt 0.375000 0.000000
vt 0.375000 0.250000
vt 0.375000 0.305031
vt 0.180031 0.500000
vt 0.125000 0.500000
vt 0.180031 0.750000
vt 0.125000 0.750000
vn -1.0000 0.0000 0.0000
vn 0.0000 0.0000 -1.0000
vn 1.0000 0.0000 0.0000
vn 0.0000 0.0000 1.0000
vn 0.0000 1.0000 0.0000
vn 0.0000 -1.0000 0.0000
g Cube.002_Cube.008_None
usemtl None
s off
f 23/37/7 18/38/7 20/39/7 24/40/7
f 32/41/8 28/42/8 22/43/8 25/44/8
f 25/44/9 22/43/9 21/45/9 26/46/9
f 31/47/10 30/48/10 18/49/10 23/50/10
f 28/51/11 20/52/11 18/53/11 30/54/11
f 29/55/10 31/47/10 23/50/10 17/56/10
f 17/57/7 23/37/7 24/40/7 19/58/7
f 19/58/8 24/40/8 32/41/8 27/59/8
f 31/47/9 29/55/9 27/60/9 32/41/9
f 22/43/11 28/51/11 30/54/11 21/45/11
f 19/61/12 27/60/12 29/62/12 17/63/12
f 26/46/10 21/45/10 30/48/10 31/47/10
f 24/40/8 20/39/8 28/42/8 32/41/8
f 26/46/12 31/47/12 32/41/12 25/44/12
